HIERARCHY
ROOT Hips
{
    OFFSET   0.000000   0.000000   0.000000
    CHANNELS 6 Xposition Yposition Zposition Zrotation Xrotation Yrotation
    JOINT Chest
    {
        OFFSET   0.000000   8.007230   0.000000
        CHANNELS 3 Zrotation Xrotation Yrotation
        JOINT Chest2
        {
            OFFSET   0.000000  22.077100   0.000000
            CHANNELS 3 Zrotation Xrotation Yrotation
            JOINT Neck
            {
                OFFSET   0.000000  23.255100   0.000000
                CHANNELS 3 Zrotation Xrotation Yrotation
                JOINT Head
                {
                    OFFSET   0.000000  14.370100   1.956600
                    CHANNELS 3 Zrotation Xrotation Yrotation
                    End Site
                    {
                        OFFSET   0.000000  19.566000   0.000000
                    }
                }
            }
            JOINT LeftCollar
            {
                OFFSET   3.911900  19.017000  -0.467063
                CHANNELS 3 Zrotation Xrotation Yrotation
                JOINT LeftShoulder
                {
                    OFFSET  10.383700   0.000000   0.000000
                    CHANNELS 3 Zrotation Xrotation Yrotation
                    JOINT LeftElbow
                    {
                        OFFSET  26.662100   0.001193   0.000980
                        CHANNELS 3 Zrotation Xrotation Yrotation
                        JOINT LeftWrist
                        {
                            OFFSET  28.869000  -0.000059  -0.000082
                            CHANNELS 3 Zrotation Xrotation Yrotation
                            JOINT LeftFinger0
                            {
                                OFFSET   2.044650  -2.323450   3.252850
                                CHANNELS 3 Zrotation Xrotation Yrotation
                                JOINT LeftFinger01
                                {
                                    OFFSET   3.088130   0.000000   0.000000
                                    CHANNELS 3 Zrotation Xrotation Yrotation
                                    JOINT LeftFinger02
                                    {
                                        OFFSET   2.639460   0.000000   0.000000
                                        CHANNELS 3 Zrotation Xrotation Yrotation
                                        End Site
                                        {
                                            OFFSET   2.582190   0.000000   0.000000
                                        }
                                    }
                                }
                            }
                            JOINT LeftFinger1
                            {
                                OFFSET   8.364480   0.000000   3.252850
                                CHANNELS 3 Zrotation Xrotation Yrotation
                                JOINT LeftFinger11
                                {
                                    OFFSET   4.646930   0.000000   0.000000
                                    CHANNELS 3 Zrotation Xrotation Yrotation
                                    JOINT LeftFinger12
                                    {
                                        OFFSET   2.323470   0.000000   0.000000
                                        CHANNELS 3 Zrotation Xrotation Yrotation
                                        End Site
                                        {
                                            OFFSET   2.273050   0.000000   0.000000
                                        }
                                    }
                                }
                            }
                            JOINT LeftFinger2
                            {
                                OFFSET   8.364490   0.000016   1.078090
                                CHANNELS 3 Zrotation Xrotation Yrotation
                                JOINT LeftFinger21
                                {
                                    OFFSET   5.111610   0.000000   0.000000
                                    CHANNELS 3 Zrotation Xrotation Yrotation
                                    JOINT LeftFinger22
                                    {
                                        OFFSET   2.788150   0.000016   0.000000
                                        CHANNELS 3 Zrotation Xrotation Yrotation
                                        End Site
                                        {
                                            OFFSET   2.727660   0.000000   0.000000
                                        }
                                    }
                                }
                            }
                            JOINT LeftFinger3
                            {
                                OFFSET   7.899780   0.000015  -1.078090
                                CHANNELS 3 Zrotation Xrotation Yrotation
                                JOINT LeftFinger31
                                {
                                    OFFSET   4.646930   0.000000   0.000000
                                    CHANNELS 3 Zrotation Xrotation Yrotation
                                    JOINT LeftFinger32
                                    {
                                        OFFSET   2.323470   0.000000   0.000000
                                        CHANNELS 3 Zrotation Xrotation Yrotation
                                        End Site
                                        {
                                            OFFSET   2.273050   0.000000   0.000000
                                        }
                                    }
                                }
                            }
                            JOINT LeftFinger4
                            {
                                OFFSET   7.435090   0.000000  -3.252850
                                CHANNELS 3 Zrotation Xrotation Yrotation
                                JOINT LeftFinger41
                                {
                                    OFFSET   3.717550   0.000000   0.000000
                                    CHANNELS 3 Zrotation Xrotation Yrotation
                                    JOINT LeftFinger42
                                    {
                                        OFFSET   1.858770   0.000000   0.000000
                                        CHANNELS 3 Zrotation Xrotation Yrotation
                                        End Site
                                        {
                                            OFFSET   1.818440   0.000000   0.000000
                                        }
                                    }
                                }
                            }
                        }
                    }
                }
            }
            JOINT RightCollar
            {
                OFFSET  -3.911910  19.017000  -0.467062
                CHANNELS 3 Zrotation Xrotation Yrotation
                JOINT RightShoulder
                {
                    OFFSET -10.383700   0.000014   0.000000
                    CHANNELS 3 Zrotation Xrotation Yrotation
                    JOINT RightElbow
                    {
                        OFFSET -26.662100   0.001225   0.001091
                        CHANNELS 3 Zrotation Xrotation Yrotation
                        JOINT RightWrist
                        {
                            OFFSET -28.869000  -0.000020  -0.000085
                            CHANNELS 3 Zrotation Xrotation Yrotation
                            JOINT RightFinger0
                            {
                                OFFSET  -2.044650  -2.323490   3.252850
                                CHANNELS 3 Zrotation Xrotation Yrotation
                                JOINT RightFinger01
                                {
                                    OFFSET  -3.088130   0.000000   0.000000
                                    CHANNELS 3 Zrotation Xrotation Yrotation
                                    JOINT RightFinger02
                                    {
                                        OFFSET  -2.639460   0.000000   0.000000
                                        CHANNELS 3 Zrotation Xrotation Yrotation
                                        End Site
                                        {
                                            OFFSET  -2.582190   0.000000   0.000000
                                        }
                                    }
                                }
                            }
                            JOINT RightFinger1
                            {
                                OFFSET  -8.364480   0.000000   3.252850
                                CHANNELS 3 Zrotation Xrotation Yrotation
                                JOINT RightFinger11
                                {
                                    OFFSET  -4.646930   0.000000   0.000000
                                    CHANNELS 3 Zrotation Xrotation Yrotation
                                    JOINT RightFinger12
                                    {
                                        OFFSET  -2.323470   0.000000   0.000000
                                        CHANNELS 3 Zrotation Xrotation Yrotation
                                        End Site
                                        {
                                            OFFSET  -2.273050   0.000000   0.000000
                                        }
                                    }
                                }
                            }
                            JOINT RightFinger2
                            {
                                OFFSET  -8.364480   0.000000   1.078090
                                CHANNELS 3 Zrotation Xrotation Yrotation
                                JOINT RightFinger21
                                {
                                    OFFSET  -5.111620   0.000000   0.000000
                                    CHANNELS 3 Zrotation Xrotation Yrotation
                                    JOINT RightFinger22
                                    {
                                        OFFSET  -2.788160   0.000000   0.000000
                                        CHANNELS 3 Zrotation Xrotation Yrotation
                                        End Site
                                        {
                                            OFFSET  -2.727660   0.000000   0.000000
                                        }
                                    }
                                }
                            }
                            JOINT RightFinger3
                            {
                                OFFSET  -7.899780   0.000000  -1.078090
                                CHANNELS 3 Zrotation Xrotation Yrotation
                                JOINT RightFinger31
                                {
                                    OFFSET  -4.646930   0.000000   0.000000
                                    CHANNELS 3 Zrotation Xrotation Yrotation
                                    JOINT RightFinger32
                                    {
                                        OFFSET  -2.323470   0.000000   0.000000
                                        CHANNELS 3 Zrotation Xrotation Yrotation
                                        End Site
                                        {
                                            OFFSET  -2.273050   0.000000   0.000000
                                        }
                                    }
                                }
                            }
                            JOINT RightFinger4
                            {
                                OFFSET  -7.435090   0.000000  -3.252850
                                CHANNELS 3 Zrotation Xrotation Yrotation
                                JOINT RightFinger41
                                {
                                    OFFSET  -3.717550   0.000000   0.000000
                                    CHANNELS 3 Zrotation Xrotation Yrotation
                                    JOINT RightFinger42
                                    {
                                        OFFSET  -1.858760   0.000000   0.000000
                                        CHANNELS 3 Zrotation Xrotation Yrotation
                                        End Site
                                        {
                                            OFFSET  -1.818440   0.000000   0.000000
                                        }
                                    }
                                }
                            }
                        }
                    }
                }
            }
        }
    }
    JOINT LeftHip
    {
        OFFSET   9.783030   0.000000   0.000000
        CHANNELS 3 Zrotation Xrotation Yrotation
        JOINT LeftKnee
        {
            OFFSET   0.000063 -41.789100   0.000608
            CHANNELS 3 Zrotation Xrotation Yrotation
            JOINT LeftAnkle
            {
                OFFSET   0.000048 -41.133200  -0.000184
                CHANNELS 3 Zrotation Xrotation Yrotation
                JOINT LeftToe
                {
                    OFFSET   0.000000  -6.358960  14.674500
                    CHANNELS 3 Zrotation Xrotation Yrotation
                    End Site
                    {
                        OFFSET   0.000000   0.000000   3.913200
                    }
                }
            }
        }
    }
    JOINT RightHip
    {
        OFFSET  -9.783030   0.000000   0.000000
        CHANNELS 3 Zrotation Xrotation Yrotation
        JOINT RightKnee
        {
            OFFSET   0.000071 -41.789100   0.001239
            CHANNELS 3 Zrotation Xrotation Yrotation
            JOINT RightAnkle
            {
                OFFSET   0.000037 -41.133200  -0.000166
                CHANNELS 3 Zrotation Xrotation Yrotation
                JOINT RightToe
                {
                    OFFSET   0.000000  -6.358960  14.674500
                    CHANNELS 3 Zrotation Xrotation Yrotation
                    End Site
                    {
                        OFFSET   0.000000   0.000000   3.913200
                    }
                }
            }
        }
    }
}
MOTION
Frames: 4
Frame Time:   0.016667
 -4.926490  89.431000   0.544275  -3.321640 -13.211100  -5.908250   3.146230   8.641180  -0.471355   6.477760  17.242000  -1.453350   3.113250  -0.998205   0.055487   5.118320  -2.005920   5.590700  -7.778920  -2.891190  -3.378670 -67.106700  28.290900  -8.614170  -3.511780 -11.295500 -16.364200  16.440100 -16.382500  10.160400  39.430900  34.069000 -61.506900 -32.986400   0.014954   0.014299 -11.493200   0.007722   0.014140 -35.542800   6.511030  -9.015690 -29.497400   0.001801   0.001692 -20.648200  -0.000113   0.001110 -29.862100  -0.729742   1.270500 -44.805500  -0.003996   0.003335 -29.840400   0.019250  -0.005202 -28.951000  -0.709456   1.281940 -43.438600   0.001635  -0.021377 -28.930100   0.011407  -0.009466 -34.799500  -0.836526   1.202880 -52.211700   0.031038  -0.034772 -34.773000   0.030700  -0.001530   9.061940  -4.498990   7.880750  56.124500 -25.825800  38.131700 -29.301200 -58.588200  84.839500 138.078000 -74.781900 146.902000 -48.899800  30.105200  60.679600  12.661600  -0.004812   0.001177   1.330810   0.004054   0.005767  39.857000  11.430100  13.357900  33.708400  -0.000776   0.000964  23.868300  -0.000678   0.000979  36.128700   4.691250   6.393160  54.172700  -0.007700   0.007831  36.162200   0.000802   0.007958  51.147600   1.889830   1.524140  54.231100   0.006460  -0.002628  40.014500   0.002384   0.009587  57.760700  -7.807040  -4.895900  87.142900   0.002469   0.004995  58.037200   0.003672   0.008773   5.483990  14.954000   4.221000   2.764470   1.962790   9.070300  -6.719720  -1.705050   0.726730  -0.000000   0.000000  -0.000000   5.201300  14.923600  -4.724260   1.076210   0.611912 -10.043200  -1.863730  -4.844570   5.486270   0.000000   0.000000   0.000000
 -4.911960  89.426400   0.571031  -3.250770 -13.234700  -5.663910   3.105340   8.664310  -0.473529   6.395370  17.289000  -1.452840   3.101270  -1.015490   0.056814   5.099270  -2.040850   5.478940  -7.788460  -2.937790  -3.404600 -67.152200  28.315000  -8.572130  -3.519870 -11.229300 -16.362100  16.317300 -16.217600  10.092800  39.421700  34.068200 -61.508600 -33.006900   0.012071   0.012016 -11.503500   0.007997   0.011523 -35.539500   6.476260  -8.972840 -29.493900   0.001797   0.015189 -20.645800  -0.009115   0.011231 -29.844500  -0.758861   1.322330 -44.779900  -0.003996   0.003336 -29.823400   0.011248  -0.005210 -28.934100  -0.737767   1.334210 -43.414000   0.001514  -0.005048 -28.913700   0.002629  -0.002320 -34.798700  -0.870239   1.251850 -52.212300   0.014743  -0.016430 -34.773400   0.014510  -0.001528   9.067860  -4.558110   7.815690  55.967200 -25.504000  37.821700 -29.421100 -58.183700  84.378500 135.625000 -75.344200 144.513000 -49.083400  30.410000  61.064000  13.192900  -0.005308   0.001323   1.596450   0.004336   0.005979  39.988900  11.433100  13.302500  33.812400  -0.001074   0.000584  23.963500  -0.000683   0.001184  36.162600   4.681230   6.375990  54.268900  -0.008733   0.008288  36.216800   0.000361   0.008196  50.692100   1.910890   1.582180  54.268800   0.006838  -0.003116  39.940000   0.002109   0.010177  57.682500  -7.782020  -4.888680  87.028300   0.002267   0.014358  57.960900   0.008385   0.008940   5.484690  15.017900   4.200260   2.737260   1.805840   8.985510  -6.742340  -1.594710   0.609717  -0.000000   0.000000  -0.000000   5.161510  15.018600  -4.898410   1.137330   0.496004 -10.085700  -1.863900  -4.810590   5.489530   0.000000   0.000000  -0.000000
 -4.891360  89.424700   0.597637  -3.181400 -13.267800  -5.426650   3.061780   8.688810  -0.476689   6.307140  17.338400  -1.452780   3.091840  -1.038680   0.058155   5.083700  -2.087530   5.384900  -7.805840  -2.981760  -3.418350 -67.197200  28.356200  -8.521750  -3.532740 -11.175000 -16.342300  16.202400 -16.073900  10.032600  39.413400  34.046900 -61.484300 -33.004600   0.009774   0.010559 -11.500200   0.007998   0.009996 -35.510700   6.455860  -8.957920 -29.470500   0.001801   0.021836 -20.629500  -0.013902   0.015822 -29.812400  -0.772264   1.347790 -44.732300  -0.003994   0.003336 -29.791800   0.003888  -0.005209 -28.903300  -0.750783   1.359870 -43.366300   0.001512   0.006399 -28.882000  -0.002552   0.001955 -34.771100  -0.885805   1.276050 -52.171600   0.004025  -0.003323 -34.746300   0.002809  -0.001530   9.076040  -4.611270   7.776680  55.833900 -25.165500  37.448800 -29.519800 -57.713400  83.936500 131.799000 -75.988100 140.713000 -49.219800  30.777400  61.304000  13.789300  -0.005779   0.001506   1.894660   0.004613   0.006173  39.991400  11.433500  13.301000  33.814900  -0.001358   0.001725  23.965700  -0.001924   0.001391  36.010200   4.680990   6.408710  54.225000  -0.009282   0.008384  36.151200  -0.000090   0.008185  49.735400   1.977720   1.708680  54.333800   0.007150  -0.003533  39.764500   0.001796   0.010364  57.405800  -7.668540  -4.863070  86.608500   0.002019   0.024780  57.681400   0.013931   0.008880   5.483000  15.086100   4.199710   2.710680   1.656450   8.898180  -6.759340  -1.487260   0.484020   0.000000   0.000000   0.000000   5.110000  15.083600  -5.032990   1.205590   0.455008 -10.136200  -1.857740  -4.806040   5.473610   0.000000   0.000000  -0.000000
 -4.867860  89.424200   0.623833  -3.119090 -13.300700  -5.205710   3.016350   8.713380  -0.478795   6.216830  17.388400  -1.452700   3.086730  -1.068460   0.059541   5.075820  -2.147480   5.280440  -7.823660  -3.024850  -3.433030 -67.250700  28.386600  -8.455200  -3.547290 -11.112300 -16.314600  16.096000 -15.926800   9.966650  39.393700  34.005900 -61.438900 -32.998500   0.007587   0.009316 -11.495300   0.007998   0.008599 -35.474700   6.448130  -8.955700 -29.438300   0.001805   0.024043 -20.606800  -0.015931   0.017164 -29.778200  -0.775469   1.354870 -44.681000  -0.003992   0.003336 -29.757600  -0.000158  -0.005207 -28.869100  -0.753887   1.367000 -43.315600   0.001511   0.011776 -28.848300  -0.004667   0.003716 -34.731200  -0.889562   1.282860 -52.111800  -0.003285   0.002940 -34.706500  -0.002937  -0.001532   9.092280  -4.669230   7.744370  55.698500 -24.813100  37.002300 -29.654500 -57.136000  83.416600 126.690000 -76.627400 135.584000 -49.319200  31.247700  61.667000  14.411500  -0.006216   0.001696   2.205750   0.004886   0.006348  39.991700  11.433600  13.300800  33.815300  -0.001623   0.003974  23.966000  -0.004324   0.001599  35.713300   4.680680   6.486980  54.012500  -0.009452   0.008398  35.964000  -0.000549   0.008110  48.333600   2.090620   1.905040  54.400100   0.007390  -0.003873  39.473500   0.001444   0.010390  56.898200  -7.445950  -4.811110  85.829000   0.001703   0.031244  57.162200   0.017425   0.008763   5.481610  15.150400   4.199090   2.687240   1.521530   8.819130  -6.768500  -1.390130   0.361615   0.000000   0.000000  -0.000000   5.067360  15.131500  -5.134380   1.254320   0.449092 -10.186000  -1.853350  -4.805700   5.431640   0.000000   0.000000   0.000000
